<mxfile host="app.diagrams.net" modified="2022-05-17T03:17:50.478Z" agent="5.0 (Windows NT 10.0; Win64; x64) AppleWebKit/537.36 (KHTML, like Gecko) Chrome/101.0.4951.64 Safari/537.36" etag="s9DlH1MARZvmpHceaCAS" version="18.0.2" type="github">
  <diagram id="PYXxnLyxGIk6Y50KsrXy" name="Page-1">
    <mxGraphModel dx="1278" dy="547" grid="1" gridSize="10" guides="1" tooltips="1" connect="1" arrows="1" fold="1" page="1" pageScale="1" pageWidth="850" pageHeight="1100" math="0" shadow="0">
      <root>
        <mxCell id="0" />
        <mxCell id="1" parent="0" />
        <mxCell id="PLLwZxkLP9qLV62_qPDr-1" value="GradeBook" style="swimlane;fontStyle=1;align=center;verticalAlign=top;childLayout=stackLayout;horizontal=1;startSize=26;horizontalStack=0;resizeParent=1;resizeParentMax=0;resizeLast=0;collapsible=1;marginBottom=0;" vertex="1" parent="1">
          <mxGeometry x="320" y="160" width="210" height="160" as="geometry" />
        </mxCell>
        <mxCell id="PLLwZxkLP9qLV62_qPDr-2" value="- grades: map&lt;string, string&gt;Â " style="text;strokeColor=none;fillColor=none;align=left;verticalAlign=top;spacingLeft=4;spacingRight=4;overflow=hidden;rotatable=0;points=[[0,0.5],[1,0.5]];portConstraint=eastwest;" vertex="1" parent="PLLwZxkLP9qLV62_qPDr-1">
          <mxGeometry y="26" width="210" height="26" as="geometry" />
        </mxCell>
        <mxCell id="PLLwZxkLP9qLV62_qPDr-3" value="" style="line;strokeWidth=1;fillColor=none;align=left;verticalAlign=middle;spacingTop=-1;spacingLeft=3;spacingRight=3;rotatable=0;labelPosition=right;points=[];portConstraint=eastwest;" vertex="1" parent="PLLwZxkLP9qLV62_qPDr-1">
          <mxGeometry y="52" width="210" height="8" as="geometry" />
        </mxCell>
        <mxCell id="PLLwZxkLP9qLV62_qPDr-4" value="+ addGrade(String, String): Boolean&#xa;+ updateGrade(String, String):boolean&#xa;+ removeGrade(String): boolean&#xa;+getGrades: map&lt;string,string&gt;" style="text;strokeColor=none;fillColor=none;align=left;verticalAlign=top;spacingLeft=4;spacingRight=4;overflow=hidden;rotatable=0;points=[[0,0.5],[1,0.5]];portConstraint=eastwest;" vertex="1" parent="PLLwZxkLP9qLV62_qPDr-1">
          <mxGeometry y="60" width="210" height="100" as="geometry" />
        </mxCell>
      </root>
    </mxGraphModel>
  </diagram>
</mxfile>
